<svg preserveAspectRatio="none" width="100%" height="100%" overflow="visible" style="display: block;" viewBox="0 0 30.1209 29.4593" fill="none" xmlns="http://www.w3.org/2000/svg">
<g id="&#231;&#148;&#181;&#229;&#189;&#177;&#230;&#168;&#161;&#229;&#188;&#143; 1">
<path id="Vector" d="M20.1532 21.7988C21.3518 21.9169 23.1311 21.349 22.9265 22.6942C22.7962 23.5516 20.6313 23.3211 18.9901 23.3211C16.8775 23.3211 14.5047 23.5259 12.8169 23.0524C9.11087 22.0128 6.23961 18.495 6.55433 14.0983C6.85796 9.85542 9.97629 6.51333 14.3379 6.12909C18.9465 5.72324 22.4774 8.87608 23.4633 12.397C24.6299 16.5624 22.602 19.6495 20.1532 21.7988ZM13.1748 10.5167C13.2174 13.0395 17.1545 12.9872 17.1113 10.4271C17.0905 9.19775 16.269 8.24014 14.6062 8.63632C13.6704 8.85924 13.1563 9.41208 13.1748 10.5167ZM8.88049 14.725C8.88049 17.2261 12.7162 17.3178 12.817 14.8145C12.8733 13.4159 11.8161 12.6133 10.4908 12.8447C9.30891 13.051 8.88049 13.8259 8.88049 14.725ZM17.5586 14.0087C16.9374 15.8518 18.4582 16.7373 19.5268 16.6949C22.0679 16.5943 21.911 12.3505 19.0796 12.8448C18.2248 12.9939 17.6964 13.6004 17.5586 14.0087ZM15.2325 20.993C17.758 20.8929 17.6333 16.6313 14.7851 17.1427C12.2014 17.6066 13.1593 21.075 15.2325 20.993Z" fill="var(--fill-0, black)"/>
</g>
</svg>
