<svg preserveAspectRatio="none" width="100%" height="100%" overflow="visible" style="display: block;" viewBox="0 0 29.1892 29.1892" fill="none" xmlns="http://www.w3.org/2000/svg">
<g id="Frame 2090051037">
<path id="Subtract" d="M14.7089 9.55847C16.3819 7.7599 19.0944 7.76005 20.7675 9.55847C22.4406 11.3571 22.4406 14.2735 20.7675 16.0721L14.9628 22.3124C14.5529 22.753 13.8551 22.753 13.4452 22.3124L7.64053 16.0721C5.96744 14.2735 5.96744 11.3571 7.64053 9.55847C9.3136 7.7599 12.026 7.75994 13.6991 9.55847L14.204 10.1014L14.7089 9.55847ZM17.8661 10.2264C17.6196 10.1829 17.3844 10.3472 17.3407 10.5936C17.2973 10.84 17.4616 11.0753 17.7079 11.119C17.9991 11.1705 18.431 11.347 18.744 11.6913C19.0385 12.0151 19.2607 12.5211 19.1093 13.3251C19.0631 13.571 19.2248 13.8079 19.4706 13.8544C19.7166 13.9007 19.9534 13.739 19.9999 13.493C20.2019 12.4208 19.9085 11.6236 19.4149 11.0809C18.9401 10.5588 18.3114 10.3053 17.8661 10.2264Z" fill="var(--fill-0, black)"/>
</g>
</svg>
