<svg preserveAspectRatio="none" width="100%" height="100%" overflow="visible" style="display: block;" viewBox="0 0 17.6091 16.6959" fill="none" xmlns="http://www.w3.org/2000/svg">
<path id="fill" fill-rule="evenodd" clip-rule="evenodd" d="M4.6513 3.32259C4.6513 2.40508 5.39508 1.66129 6.31259 1.66129C7.23009 1.66129 7.97388 2.40508 7.97388 3.32259L7.97388 15.8653C7.97388 16.3241 8.34577 16.6959 8.80453 16.6959C9.26328 16.6959 9.63517 16.3241 9.63517 15.8653V3.32259L9.63517 3.32027V3.28233C9.61361 1.46587 8.13416 0 6.31259 0C4.47757 0 2.99 1.48757 2.99 3.32259C2.99 4.85039 4.02047 6.13538 5.42275 6.52446C5.86481 6.64711 6.32259 6.38818 6.44524 5.94613C6.5679 5.50408 6.30897 5.04629 5.86692 4.92364C5.1652 4.72894 4.6513 4.08471 4.6513 3.32259ZM4.98388 15.4472C4.98388 15.906 5.35577 16.2778 5.81452 16.2778C6.27328 16.2778 6.64517 15.906 6.64517 15.4472V10.8814V10.7588H6.64295C6.57844 8.98062 5.11655 7.55886 3.32259 7.55886C1.48757 7.55886 0 9.04643 0 10.8814C0 12.4093 1.03047 13.6942 2.43275 14.0833C2.87481 14.206 3.33259 13.947 3.45524 13.505C3.57789 13.0629 3.31897 12.6052 2.87692 12.4825C2.1752 12.2878 1.66129 11.6436 1.66129 10.8814C1.66129 9.96394 2.40508 9.22015 3.32259 9.22015C4.24009 9.22015 4.98388 9.96394 4.98388 10.8814V15.4472ZM11.7949 15.4472C12.2536 15.4472 12.6255 15.0753 12.6255 14.6166V7.85834C12.6431 6.95612 13.38 6.23015 14.2865 6.23015C15.204 6.23015 15.9478 6.97394 15.9478 7.89144C15.9478 8.65357 15.4339 9.2978 14.7321 9.4925C14.2901 9.61515 14.0312 10.0729 14.1538 10.515C14.2765 10.957 14.7342 11.216 15.1763 11.0933C16.5786 10.7042 17.6091 9.41925 17.6091 7.89144C17.6091 6.05643 16.1215 4.56886 14.2865 4.56886C12.4926 4.56886 11.0308 5.99045 10.9661 7.7685H10.9642V7.84462C10.964 7.8602 10.9639 7.87581 10.9639 7.89144L10.9642 14.6166C10.9642 15.0753 11.3361 15.4472 11.7949 15.4472Z" fill="var(--fill-0, black)"/>
</svg>
