<svg preserveAspectRatio="none" width="100%" height="100%" overflow="visible" style="display: block;" viewBox="0 0 19.9355 19.9355" fill="none" xmlns="http://www.w3.org/2000/svg">
<g id="icon/&#230;&#131;&#133;&#230;&#153;&#175;&#230;&#168;&#161;&#229;&#188;&#143;/&#229;&#143;&#145;&#230;&#149;&#163;" clip-path="url(#clip0_1034_3706)">
<path id="&#229;&#144;&#136;&#229;&#185;&#182;&#229;&#189;&#162;&#231;&#138;&#182;" fill-rule="evenodd" clip-rule="evenodd" d="M9.96753 7.26352C11.135 7.26352 12.192 7.73674 12.9571 8.50183C13.7222 9.26692 14.1954 10.3239 14.1954 11.4914C14.1954 13.1171 13.2777 14.5283 11.9325 15.236L11.9322 18.2311L8.00282 18.231L8.00256 15.236C6.65737 14.5283 5.73968 13.1171 5.73968 11.4914C5.73968 10.3239 6.2129 9.26692 6.97799 8.50183C7.74308 7.73674 8.80004 7.26352 9.96753 7.26352Z" stroke="var(--stroke-0, #303030)" stroke-width="1.7942"/>
<path id="&#229;&#144;&#136;&#229;&#185;&#182;&#229;&#189;&#162;&#231;&#138;&#182;_2" d="M14.5598 6.21474C13.3844 4.97357 11.7606 4.20589 9.96709 4.20589C8.17353 4.20589 6.54976 4.97357 5.37439 6.21474" stroke="var(--stroke-0, #303030)" stroke-width="1.7942" stroke-linecap="round"/>
<path id="&#229;&#144;&#136;&#229;&#185;&#182;&#229;&#189;&#162;&#231;&#138;&#182;_3" d="M17.0752 5.06167C16.9037 4.81341 16.7177 4.57471 16.5182 4.34663C16.336 4.13825 16.1425 3.93873 15.9387 3.74887C14.4102 2.3252 12.2986 1.44465 9.96613 1.44465C7.63371 1.44465 5.52209 2.3252 3.99359 3.74887C3.78974 3.93873 3.59627 4.13825 3.41403 4.34663C3.21455 4.57471 3.02853 4.81341 2.85709 5.06167" stroke="var(--stroke-0, #303030)" stroke-width="1.7942" stroke-linecap="round"/>
</g>
<defs>
<clipPath id="clip0_1034_3706">
<rect width="19.9355" height="19.9355" fill="white"/>
</clipPath>
</defs>
</svg>
