<svg preserveAspectRatio="none" width="100%" height="100%" overflow="visible" style="display: block;" viewBox="0 0 29.1892 29.1892" fill="none" xmlns="http://www.w3.org/2000/svg">
<g id="Frame 2090051037">
<path id="Subtract" d="M14.7084 9.55876C16.3814 7.76016 19.0939 7.76022 20.767 9.55876C22.4401 11.3574 22.4401 14.2738 20.767 16.0724L14.9623 22.3127C14.5523 22.7531 13.8545 22.7532 13.4447 22.3127L7.64001 16.0724C5.96696 14.2738 5.96704 11.3574 7.64001 9.55876C9.3131 7.76012 12.0255 7.76012 13.6986 9.55876L14.2035 10.1017L14.7084 9.55876ZM17.8656 10.2258C17.6193 10.1823 17.384 10.3467 17.3402 10.5929C17.2966 10.8394 17.4611 11.0745 17.7074 11.1183C17.9984 11.1698 18.4305 11.3465 18.7435 11.6906C19.038 12.0144 19.26 12.5206 19.1088 13.3244C19.0624 13.5703 19.2242 13.8071 19.4701 13.8537C19.7162 13.9 19.953 13.7384 19.9994 13.4924C20.2012 12.4202 19.9079 11.6229 19.4144 11.0802C18.9396 10.5584 18.3108 10.3046 17.8656 10.2258Z" fill="var(--fill-0, black)"/>
</g>
</svg>
