<svg preserveAspectRatio="none" width="100%" height="100%" overflow="visible" style="display: block;" viewBox="0 0 16.6667 4.15748" fill="none" xmlns="http://www.w3.org/2000/svg">
<path id="fill" fill-rule="evenodd" clip-rule="evenodd" d="M8.16278 1.04236C8.21646 1.06815 8.27074 1.09423 8.32565 1.12057L8.34652 1.13059L8.36681 1.14174C10.3348 2.22402 11.1103 2.49081 11.9971 2.49081C13.4225 2.49082 14.3106 1.90063 15.2797 1.03924C15.6237 0.733477 16.1504 0.76446 16.4562 1.10845C16.7619 1.45243 16.731 1.97916 16.387 2.28492C15.2962 3.25446 14.023 4.15748 11.9971 4.15748C10.6504 4.15748 9.54707 3.69189 7.58404 2.61333C7.55544 2.59961 7.52722 2.58607 7.49936 2.5727C6.73152 2.20423 6.24056 1.96863 5.76514 1.82498C5.30546 1.68609 4.84841 1.63176 4.1714 1.68934C3.14166 1.77693 2.13871 2.44212 1.39063 3.11499C1.04845 3.42277 0.521548 3.39489 0.213766 3.05271C-0.0940166 2.71052 -0.0661306 2.18362 0.276051 1.87584C1.10297 1.13205 2.44682 0.163348 4.03014 0.0286725C4.88941 -0.0444157 5.56068 0.0221139 6.24721 0.229552C6.85079 0.411928 7.45517 0.702341 8.16278 1.04236Z" fill="var(--fill-0, black)" fill-opacity="0.8"/>
</svg>
