<svg preserveAspectRatio="none" width="100%" height="100%" overflow="visible" style="display: block;" viewBox="0 0 30.1209 29.4593" fill="none" xmlns="http://www.w3.org/2000/svg">
<g id="&#231;&#148;&#181;&#229;&#189;&#177;&#230;&#168;&#161;&#229;&#188;&#143; 1">
<path id="Vector" d="M20.1593 21.7988C21.3579 21.9169 23.1372 21.3491 22.9326 22.6942C22.8023 23.5516 20.6375 23.3211 18.9962 23.3211C16.8836 23.3211 14.5108 23.5259 12.823 23.0525C9.11701 22.0128 6.24575 18.495 6.56047 14.0983C6.86409 9.85543 9.98243 6.51334 14.344 6.1291C18.9527 5.72325 22.4836 8.87609 23.4695 12.397C24.636 16.5624 22.6081 19.6495 20.1593 21.7988ZM13.1809 10.5167C13.2235 13.0396 17.1606 12.9873 17.1174 10.4271C17.0967 9.19776 16.2752 8.24015 14.6123 8.63633C13.6765 8.85925 13.1624 9.41209 13.1809 10.5167ZM8.88663 14.725C8.88663 17.2261 12.7223 17.3178 12.8231 14.8145C12.8795 13.4159 11.8222 12.6133 10.497 12.8447C9.31505 13.051 8.88663 13.8259 8.88663 14.725ZM17.5647 14.0087C16.9435 15.8519 18.4644 16.7373 19.533 16.695C22.074 16.5943 21.9171 12.3505 19.0857 12.8448C18.2309 12.9939 17.7025 13.6004 17.5647 14.0087ZM15.2387 20.993C17.7642 20.8929 17.6394 16.6313 14.7913 17.1427C12.2075 17.6066 13.1654 21.075 15.2387 20.993Z" fill="var(--fill-0, black)"/>
</g>
</svg>
