<svg preserveAspectRatio="none" width="100%" height="100%" overflow="visible" style="display: block;" viewBox="0 0 49.3242 49.3242" fill="none" xmlns="http://www.w3.org/2000/svg">
<g id="&#232;&#174;&#190;&#229;&#164;&#135;-&#229;&#188;&#128;">
<path d="M0 24.6621C0 11.0416 11.0416 0 24.6621 0V0C38.2826 0 49.3242 11.0416 49.3242 24.6621V24.6621C49.3242 38.2826 38.2826 49.3242 24.6621 49.3242V49.3242C11.0416 49.3242 0 38.2826 0 24.6621V24.6621Z" fill="var(--fill-0, black)" fill-opacity="0.05"/>
<path id="Union" d="M22.9661 22.1826C23.376 22.1828 23.7081 22.5149 23.7082 22.9248V27.2607H28.0403C28.4503 27.2607 28.7823 27.5929 28.7825 28.0029V32.7363C28.7823 33.1463 28.4503 33.4785 28.0403 33.4785H18.2288C17.8188 33.4785 17.4867 33.1463 17.4866 32.7363V28.0029C17.4866 27.9775 17.488 27.9524 17.4905 27.9277V22.9248C17.4906 22.5149 17.8228 22.1828 18.2327 22.1826H22.9661ZM23.7082 31.9932H27.2981V28.7451H23.7082V31.9932ZM18.9748 31.9932H22.2229V28.7451H18.9748V31.9932ZM18.9748 27.2607H22.2229V23.667H18.9748V27.2607ZM30.4895 15.9346C30.714 15.7101 31.0864 15.9466 30.9788 16.2451L29.4954 20.3476H31.5403C31.8046 20.3478 31.9369 20.6674 31.7502 20.8545L27.3245 25.2803C27.0999 25.5048 26.7273 25.2683 26.8352 24.9697L28.3186 20.8672H26.2737C26.0091 20.8672 25.8767 20.5475 26.0637 20.3603L30.4895 15.9346Z" fill="var(--fill-0, black)" fill-opacity="0.8"/>
</g>
</svg>
