<svg preserveAspectRatio="none" width="100%" height="100%" overflow="visible" style="display: block;" viewBox="0 0 13.3249 14.5978" fill="none" xmlns="http://www.w3.org/2000/svg">
<g id="A">
<path fill-rule="evenodd" clip-rule="evenodd" d="M2.1856 14.2391C2.14965 14.3332 2.05935 14.3953 1.95861 14.3953H0.445913C0.274779 14.3953 0.157263 14.2232 0.219633 14.0638L5.58402 0.356928C5.62047 0.263785 5.71028 0.202494 5.8103 0.202494H7.51464C7.61467 0.202494 7.70447 0.263785 7.74092 0.356928L13.1053 14.0638C13.1677 14.2232 13.0502 14.3953 12.879 14.3953H11.3861C11.2854 14.3953 11.1951 14.3332 11.1591 14.2391L9.95424 11.0852C9.90631 10.9597 9.78591 10.8768 9.65159 10.8768H3.69312C3.5588 10.8768 3.4384 10.9597 3.39047 11.0852L2.1856 14.2391ZM8.73143 9.13727C8.95863 9.13727 9.11527 8.9095 9.03396 8.69734L6.97489 3.32445C6.86858 3.04705 6.47613 3.04705 6.36982 3.32445L4.31075 8.69734C4.22944 8.9095 4.38608 9.13727 4.61328 9.13727H8.73143Z" fill="var(--fill-0, white)"/>
<path d="M2.1856 14.2391L1.99644 14.1668L1.99644 14.1668L2.1856 14.2391ZM0.219633 14.0638L0.0310658 13.99H0.0310658L0.219633 14.0638ZM5.58402 0.356928L5.39545 0.28313L5.39545 0.28313L5.58402 0.356928ZM7.74092 0.356928L7.92949 0.28313V0.283129L7.74092 0.356928ZM13.1053 14.0638L12.9167 14.1376V14.1376L13.1053 14.0638ZM11.1591 14.2391L11.3483 14.1668L11.3483 14.1668L11.1591 14.2391ZM9.95424 11.0852L9.76508 11.1574V11.1574L9.95424 11.0852ZM3.39047 11.0852L3.20131 11.0129H3.20131L3.39047 11.0852ZM9.03396 8.69734L9.22305 8.62488V8.62488L9.03396 8.69734ZM6.97489 3.32445L7.16397 3.25199V3.25199L6.97489 3.32445ZM6.36982 3.32445L6.18074 3.25199V3.25199L6.36982 3.32445ZM4.31075 8.69734L4.49983 8.7698V8.7698L4.31075 8.69734ZM1.95861 14.3953V14.5978C2.1433 14.5978 2.30885 14.4839 2.37476 14.3113L2.1856 14.2391L1.99644 14.1668C1.99045 14.1825 1.9754 14.1929 1.95861 14.1929V14.3953ZM0.445913 14.3953V14.5978H1.95861V14.3953V14.1929H0.445913V14.3953ZM0.219633 14.0638L0.0310658 13.99C-0.0832784 14.2822 0.132166 14.5978 0.445913 14.5978V14.3953V14.1929C0.417392 14.1929 0.397805 14.1642 0.4082 14.1376L0.219633 14.0638ZM5.58402 0.356928L5.39545 0.28313L0.0310658 13.99L0.219633 14.0638L0.4082 14.1376L5.77259 0.430727L5.58402 0.356928ZM5.8103 0.202494V0C5.62693 0 5.46228 0.112366 5.39545 0.28313L5.58402 0.356928L5.77259 0.430727C5.77866 0.415203 5.79363 0.404988 5.8103 0.404988V0.202494ZM7.51464 0.202494V0H5.8103V0.202494V0.404988H7.51464V0.202494ZM7.74092 0.356928L7.92949 0.283129C7.86266 0.112366 7.69802 0 7.51464 0V0.202494V0.404988C7.53131 0.404988 7.54628 0.415203 7.55236 0.430727L7.74092 0.356928ZM13.1053 14.0638L13.2939 13.99L7.92949 0.28313L7.74092 0.356928L7.55236 0.430727L12.9167 14.1376L13.1053 14.0638ZM12.879 14.3953V14.5978C13.1928 14.5978 13.4082 14.2822 13.2939 13.99L13.1053 14.0638L12.9167 14.1376C12.9271 14.1642 12.9076 14.1929 12.879 14.1929V14.3953ZM11.3861 14.3953V14.5978H12.879V14.3953V14.1929H11.3861V14.3953ZM11.1591 14.2391L10.97 14.3113C11.0359 14.4839 11.2014 14.5978 11.3861 14.5978V14.3953V14.1929C11.3693 14.1929 11.3543 14.1825 11.3483 14.1668L11.1591 14.2391ZM9.95424 11.0852L9.76508 11.1574L10.97 14.3113L11.1591 14.2391L11.3483 14.1668L10.1434 11.0129L9.95424 11.0852ZM9.65159 10.8768V11.0793C9.70196 11.0793 9.74711 11.1104 9.76508 11.1574L9.95424 11.0852L10.1434 11.0129C10.0655 10.809 9.86987 10.6743 9.65159 10.6743V10.8768ZM3.69312 10.8768V11.0793H9.65159V10.8768V10.6743H3.69312V10.8768ZM3.39047 11.0852L3.57963 11.1574C3.5976 11.1104 3.64275 11.0793 3.69312 11.0793V10.8768V10.6743C3.47484 10.6743 3.2792 10.809 3.20131 11.0129L3.39047 11.0852ZM2.1856 14.2391L2.37476 14.3113L3.57963 11.1574L3.39047 11.0852L3.20131 11.0129L1.99644 14.1668L2.1856 14.2391ZM9.03396 8.69734L8.84488 8.7698C8.87537 8.84936 8.81663 8.93478 8.73143 8.93478V9.13727V9.33977C9.10063 9.33977 9.35517 8.96963 9.22305 8.62488L9.03396 8.69734ZM6.97489 3.32445L6.78581 3.39691L8.84488 8.7698L9.03396 8.69734L9.22305 8.62488L7.16397 3.25199L6.97489 3.32445ZM6.36982 3.32445L6.55891 3.39691C6.59877 3.29289 6.74594 3.29289 6.78581 3.39691L6.97489 3.32445L7.16397 3.25199C6.99122 2.80122 6.35349 2.80121 6.18074 3.25199L6.36982 3.32445ZM4.31075 8.69734L4.49983 8.7698L6.55891 3.39691L6.36982 3.32445L6.18074 3.25199L4.12167 8.62488L4.31075 8.69734ZM4.61328 9.13727V8.93478C4.52808 8.93478 4.46934 8.84936 4.49983 8.7698L4.31075 8.69734L4.12167 8.62488C3.98954 8.96963 4.24408 9.33977 4.61328 9.33977V9.13727ZM8.73143 9.13727V8.93478H4.61328V9.13727V9.33977H8.73143V9.13727Z" fill="var(--stroke-0, white)"/>
</g>
</svg>
