<svg preserveAspectRatio="none" width="100%" height="100%" overflow="visible" style="display: block;" viewBox="0 0 19.8027 20.2798" fill="none" xmlns="http://www.w3.org/2000/svg">
<g id="&#229;&#142;&#168;&#231;&#148;&#181;/&#233;&#128;&#154;&#231;&#148;&#168;/&#229;&#138;&#159;&#232;&#131;&#189;/&#229;&#134;&#176;&#233;&#149;&#135;@selected">
<path id="Union" d="M8.12592 6.33689C8.53563 6.3373 8.86799 6.66931 8.86811 7.07908V11.415H13.207C13.6168 11.4153 13.949 11.7474 13.9492 12.1572V16.8906C13.949 17.3004 13.6168 17.6325 13.207 17.6328H3.39252C2.98241 17.6328 2.65035 17.3007 2.65034 16.8906V7.07908C2.65046 6.66906 2.98247 6.33689 3.39252 6.33689H8.12592ZM8.86811 16.1474H12.4648V12.8994H8.86811V16.1474ZM4.13764 16.1474H7.38276V12.8994H4.13764V16.1474ZM4.13471 11.415H7.38276V7.82127H4.13471V11.415ZM15.6523 0.0888462C15.8767 -0.135514 16.2492 0.100942 16.1415 0.399393L14.6581 4.50193H16.7031C16.9673 4.50224 17.0995 4.82168 16.913 5.00877L12.4873 9.43455C12.2627 9.65906 11.8901 9.4226 11.998 9.124L13.4804 5.02146H11.4365C11.1718 5.02146 11.0394 4.70175 11.2265 4.51463L15.6523 0.0888462Z" fill="var(--fill-0, black)" fill-opacity="0.8"/>
</g>
</svg>
