<svg preserveAspectRatio="none" width="100%" height="100%" overflow="visible" style="display: block;" viewBox="0 0 29.4593 29.4593" fill="none" xmlns="http://www.w3.org/2000/svg">
<g id="&#230;&#180;&#190;&#229;&#175;&#185; 1">
<path id="Vector" d="M12.6766 10.2247C12.3986 9.93299 12.0505 9.71733 11.6655 9.59828C11.2805 9.47924 10.8714 9.46077 10.4773 9.54464C10.0831 9.62852 9.71703 9.81193 9.41386 10.0774C9.1107 10.3429 8.88057 10.6816 8.74541 11.0612L5.29777 20.5338C5.1722 20.8668 5.14343 21.2286 5.21478 21.5772C5.28614 21.9259 5.4547 22.2473 5.70099 22.5042C5.94729 22.7611 6.26125 22.9431 6.6066 23.0291C6.95196 23.1151 7.3146 23.1016 7.65261 22.9902L17.13 19.8133C17.511 19.681 17.8528 19.4554 18.1244 19.1571C18.3959 18.8589 18.5885 18.4974 18.6846 18.1057C18.7807 17.714 18.7773 17.3045 18.6747 16.9144C18.5721 16.5244 18.3735 16.1662 18.0971 15.8725L12.6766 10.2247ZM15.0121 10.5197H15.1378C15.3222 10.5175 15.4999 10.4504 15.6396 10.3301C15.7794 10.2098 15.8722 10.0441 15.9018 9.86205C16.3854 6.8786 16.0372 5.39413 16.0227 5.33127C16.0044 5.22882 15.9654 5.13116 15.9083 5.0442C15.8511 4.95724 15.7768 4.88279 15.69 4.82538C15.6032 4.76796 15.5057 4.72876 15.4033 4.71016C15.3009 4.69156 15.1958 4.69395 15.0943 4.71718C14.9924 4.74204 14.8964 4.78688 14.812 4.84908C14.7275 4.91129 14.6563 4.98964 14.6023 5.07958C14.5483 5.16953 14.5127 5.26929 14.4976 5.37308C14.4824 5.47687 14.488 5.58264 14.5141 5.68426C14.5141 5.68426 14.7897 6.98015 14.3738 9.60577C14.3551 9.70776 14.3567 9.81245 14.3787 9.91378C14.4007 10.0151 14.4426 10.1111 14.502 10.1961C14.5614 10.2811 14.637 10.3535 14.7246 10.409C14.8122 10.4646 14.9099 10.5022 15.0121 10.5197ZM17.8988 10.9742C17.9869 11.0259 18.0843 11.0595 18.1855 11.0732C18.2867 11.0868 18.3896 11.0801 18.4881 11.0536C18.5867 11.027 18.679 10.9811 18.7596 10.9185C18.8403 10.8559 18.9076 10.7778 18.9578 10.6889C19.3487 9.86391 19.5738 8.97018 19.6202 8.05844C19.6308 7.85221 19.5595 7.65015 19.4219 7.49621C19.2842 7.34226 19.0914 7.2489 18.8853 7.23642C18.7832 7.23122 18.6812 7.24628 18.585 7.28072C18.4889 7.31516 18.4005 7.3683 18.3249 7.43708C18.2494 7.50586 18.1883 7.58892 18.145 7.68146C18.1018 7.774 18.0772 7.87418 18.0729 7.97624C18.0384 8.64298 17.8845 9.2981 17.6184 9.9104C17.516 10.089 17.488 10.3007 17.5404 10.4998C17.5929 10.6989 17.7217 10.8693 17.8988 10.9742ZM19.1996 13.1888C19.0014 13.2529 18.8369 13.3931 18.7421 13.5786C18.6474 13.764 18.6301 13.9795 18.6943 14.1777C18.7584 14.3758 18.8986 14.5403 19.084 14.6351C19.2695 14.7299 19.485 14.7471 19.6831 14.683C19.9282 14.6179 20.1843 14.6057 20.4345 14.6474C20.6846 14.6891 20.923 14.7837 21.1337 14.9247C21.214 14.9878 21.3061 15.0343 21.4045 15.0614C21.503 15.0886 21.6058 15.0958 21.7071 15.0828C21.8084 15.0697 21.9061 15.0366 21.9944 14.9854C22.0828 14.9342 22.16 14.8659 22.2217 14.7845C22.3494 14.6222 22.4082 14.4162 22.3856 14.211C22.363 14.0057 22.2607 13.8175 22.1008 13.6869C21.6882 13.3862 21.2117 13.1848 20.7085 13.0984C20.2052 13.012 19.6889 13.0429 19.1996 13.1888Z" fill="var(--fill-0, black)"/>
<path id="Vector_2" d="M21.4959 9.03419C21.4959 9.22724 21.5334 9.41841 21.6063 9.59677C21.6792 9.77514 21.786 9.93721 21.9208 10.0737C22.0555 10.2102 22.2154 10.3185 22.3914 10.3924C22.5674 10.4663 22.756 10.5043 22.9466 10.5043C23.1371 10.5043 23.3257 10.4663 23.5017 10.3924C23.6777 10.3185 23.8377 10.2102 23.9724 10.0737C24.1071 9.93721 24.2139 9.77514 24.2868 9.59677C24.3597 9.41841 24.3972 9.22724 24.3972 9.03419C24.3972 8.84114 24.3597 8.64997 24.2868 8.4716C24.2139 8.29324 24.1071 8.13117 23.9724 7.99465C23.8377 7.85814 23.6777 7.74984 23.5017 7.67596C23.3257 7.60208 23.1371 7.56405 22.9466 7.56405C22.756 7.56405 22.5674 7.60208 22.3914 7.67596C22.2154 7.74984 22.0555 7.85814 21.9208 7.99465C21.786 8.13117 21.6792 8.29324 21.6063 8.4716C21.5334 8.64997 21.4959 8.84114 21.4959 9.03419Z" fill="var(--fill-0, black)"/>
</g>
</svg>
