<svg preserveAspectRatio="none" width="100%" height="100%" overflow="visible" style="display: block;" viewBox="0 0 29.459 29.459" fill="none" xmlns="http://www.w3.org/2000/svg">
<g id="&#229;&#174;&#164;&#229;&#164;&#150;">
<path id="Union" d="M9.71234 8.83737C12.8378 8.83737 15.3715 11.3711 15.3715 14.4966C15.3715 17.622 12.8378 20.1557 9.71234 20.1557C6.58706 20.1555 4.05316 17.6219 4.05316 14.4966C4.05317 11.3712 6.58707 8.83761 9.71234 8.83737ZM21.9711 8.83835C22.58 9.14024 23.1436 9.53922 23.6332 10.0288C24.8177 11.2133 25.4826 12.8205 25.4829 14.4956C25.4829 16.171 24.8179 17.7786 23.6332 18.9633C23.1435 19.4531 22.5802 19.8518 21.9711 20.1538V17.688C22.0394 17.6279 22.1066 17.5661 22.1713 17.5014C22.9684 16.7043 23.4164 15.6229 23.4164 14.4956C23.4162 13.3686 22.9682 12.2876 22.1713 11.4907C22.1066 11.426 22.0394 11.3632 21.9711 11.3032V8.83835ZM16.9174 8.84128C17.5237 9.1428 18.0839 9.54103 18.5717 10.0288C19.7563 11.2133 20.4221 12.8204 20.4223 14.4956C20.4223 16.1709 19.7562 17.7786 18.5717 18.9633C18.0841 19.4509 17.5234 19.8484 16.9174 20.1499V17.6811C16.983 17.6232 17.0486 17.5637 17.1108 17.5014C17.9076 16.7043 18.3559 15.6227 18.3559 14.4956C18.3557 13.3686 17.9076 12.2876 17.1108 11.4907C17.0483 11.4282 16.9833 11.3682 16.9174 11.31V8.84128Z" fill="var(--fill-0, white)"/>
</g>
</svg>
