<svg preserveAspectRatio="none" width="100%" height="100%" overflow="visible" style="display: block;" viewBox="0 0 17.4436 17.4436" fill="none" xmlns="http://www.w3.org/2000/svg">
<path id="fill" fill-rule="evenodd" clip-rule="evenodd" d="M9.63477 0.830646C9.63477 0.371893 9.26287 0 8.80412 0C8.34537 0 7.97347 0.371893 7.97347 0.830646V1.16291C7.97347 1.62166 8.34537 1.99355 8.80412 1.99355C9.26287 1.99355 9.63477 1.62166 9.63477 1.1629V0.830646ZM2.61277 2.49634C2.93716 2.17195 3.4631 2.17195 3.78748 2.49634L4.02243 2.73128C4.34681 3.05567 4.34681 3.5816 4.02243 3.90599C3.69804 4.23038 3.1721 4.23038 2.84772 3.90599L2.61277 3.67105C2.28838 3.34666 2.28838 2.82073 2.61277 2.49634ZM0 8.63945C0 8.1807 0.371893 7.80881 0.830646 7.80881H1.1629C1.62166 7.80881 1.99355 8.1807 1.99355 8.63945C1.99355 9.0982 1.62166 9.4701 1.16291 9.4701H0.830646C0.371893 9.4701 0 9.0982 0 8.63945ZM2.49633 13.6561C2.17194 13.9805 2.17194 14.5064 2.49633 14.8308C2.82072 15.1552 3.34666 15.1552 3.67104 14.8308L3.90599 14.5959C4.23037 14.2715 4.23037 13.7455 3.90599 13.4212C3.5816 13.0968 3.05566 13.0968 2.73127 13.4212L2.49633 13.6561ZM8.63945 17.4436C8.1807 17.4436 7.80881 17.0717 7.80881 16.6129V16.2807C7.80881 15.8219 8.1807 15.45 8.63945 15.45C9.0982 15.45 9.4701 15.8219 9.4701 16.2807V16.6129C9.4701 17.0717 9.0982 17.4436 8.63945 17.4436ZM13.6561 14.9472C13.9805 15.2716 14.5064 15.2716 14.8308 14.9472C15.1552 14.6228 15.1552 14.0969 14.8308 13.7725L14.5959 13.5376C14.2715 13.2132 13.7455 13.2132 13.4211 13.5376C13.0968 13.862 13.0968 14.3879 13.4211 14.7123L13.6561 14.9472ZM17.4436 8.80412C17.4436 9.26287 17.0717 9.63477 16.6129 9.63477H16.2807C15.8219 9.63477 15.45 9.26287 15.45 8.80412C15.45 8.34537 15.8219 7.97347 16.2807 7.97347H16.6129C17.0717 7.97347 17.4436 8.34537 17.4436 8.80412ZM14.9472 3.78748C15.2716 3.46309 15.2716 2.93715 14.9472 2.61277C14.6229 2.28838 14.0969 2.28838 13.7725 2.61277L13.5376 2.84771C13.2132 3.1721 13.2132 3.69803 13.5376 4.02242C13.862 4.34681 14.3879 4.34681 14.7123 4.02242L14.9472 3.78748ZM8.71428 4.98388C6.64989 4.98388 4.97637 6.6574 4.97637 8.72179C4.97637 10.7862 6.64989 12.4597 8.71428 12.4597C10.7787 12.4597 12.4522 10.7862 12.4522 8.72179C12.4522 6.6574 10.7787 4.98388 8.71428 4.98388ZM3.31508 8.72179C3.31508 5.73989 5.73239 3.32259 8.71428 3.32259C11.6962 3.32259 14.1135 5.73989 14.1135 8.72179C14.1135 11.7037 11.6962 14.121 8.71428 14.121C5.73239 14.121 3.31508 11.7037 3.31508 8.72179Z" fill="var(--fill-0, black)"/>
</svg>
