<svg preserveAspectRatio="none" width="100%" height="100%" overflow="visible" style="display: block;" viewBox="0 0 29.4589 29.4589" fill="none" xmlns="http://www.w3.org/2000/svg">
<g id="directseeding 1">
<path id="Vector" d="M16.0839 12.7673C16.4782 11.423 16.3115 9.94862 15.5835 8.71446C15.5995 8.73672 8.62604 15.7773 8.57557 15.7328C9.78742 16.4497 11.2593 16.6515 12.5833 16.2816C12.5743 16.2473 16.0559 12.7622 16.0839 12.7673ZM14.8393 7.59164C13.9002 6.66417 12.5555 6.03539 11.1341 6.03539C8.26053 6.03539 5.931 8.37436 5.931 11.2596C5.931 12.6676 6.57049 14.0303 7.47247 14.9698C7.47386 14.9691 14.7958 7.6517 14.8393 7.59164ZM22.1985 21.4519C22.1985 21.4519 22.3681 19.98 21.9441 19.5554C21.9159 19.5271 17.0543 13.5826 17.0543 13.5826L13.4365 17.2059L19.372 22.1314C19.7677 22.5842 21.294 22.3578 21.294 22.3578L22.5094 23.4617L23.3574 22.6125L22.1985 21.4519Z" fill="var(--fill-0, black)"/>
</g>
</svg>
