<svg preserveAspectRatio="none" width="100%" height="100%" overflow="visible" style="display: block;" viewBox="0 0 29.5678 29.5678" fill="none" xmlns="http://www.w3.org/2000/svg">
<g id="&#229;&#174;&#164;&#229;&#164;&#150;">
<path id="Union" d="M9.74928 8.86976C12.8862 8.86993 15.429 11.4135 15.429 14.5504C15.4287 17.6871 12.886 20.2299 9.74928 20.2301C6.61241 20.2301 4.06887 17.6872 4.06862 14.5504C4.06862 11.4134 6.61225 8.86976 9.74928 8.86976ZM22.0549 8.87171C22.6652 9.17461 23.2291 9.57525 23.72 10.0661C24.9089 11.255 25.5772 12.8681 25.5774 14.5494C25.5774 16.231 24.9089 17.8447 23.72 19.0338C23.2293 19.5244 22.665 19.9243 22.0549 20.2272V17.7506C22.1223 17.6914 22.1894 17.6308 22.2532 17.567C23.0531 16.767 23.5032 15.6808 23.5032 14.5494C23.503 13.4182 23.0531 12.3328 22.2532 11.5328C22.1892 11.4688 22.1225 11.4078 22.0549 11.3483V8.87171ZM16.9798 8.87464C17.5886 9.17733 18.151 9.57723 18.6409 10.067C19.83 11.2561 20.4983 12.8688 20.4983 14.5504C20.4982 16.232 19.8299 17.8448 18.6409 19.0338C18.1511 19.5235 17.5885 19.9236 16.9798 20.2262V17.7487C17.0459 17.6903 17.1113 17.6298 17.1741 17.567C17.9741 16.767 18.424 15.6818 18.4241 14.5504C18.4241 13.4189 17.9742 12.3339 17.1741 11.5338C17.111 11.4708 17.0462 11.4098 16.9798 11.3512V8.87464Z" fill="var(--fill-0, white)"/>
</g>
</svg>
