<svg preserveAspectRatio="none" width="100%" height="100%" overflow="visible" style="display: block;" viewBox="0 0 15.6383 15.6384" fill="none" xmlns="http://www.w3.org/2000/svg">
<g id="&#231;&#188;&#150;&#231;&#187;&#132;">
<path id="&#229;&#144;&#136;&#229;&#185;&#182;&#229;&#189;&#162;&#231;&#138;&#182;" fill-rule="evenodd" clip-rule="evenodd" d="M6.03276 1.00147L6.33317 1.31263C6.11936 1.94307 6.0034 2.61878 6.0034 3.3216C6.0034 6.7703 8.79548 9.56602 12.2397 9.56602C12.968 9.56602 13.6671 9.44101 14.3168 9.21127L14.6442 9.50347C13.8705 12.5279 11.1303 14.7637 7.86861 14.7637C4.00602 14.7637 0.874774 11.6283 0.874774 7.76069C0.874774 4.52918 3.06071 1.80889 6.03276 1.00147Z" stroke="var(--stroke-0, #303030)" stroke-width="1.74955" stroke-linecap="round"/>
<path id="&#230;&#164;&#173;&#229;&#156;&#134;&#229;&#189;&#162;" d="M6.49422 1.73418C6.9731 1.73418 7.36131 1.34597 7.36131 0.867092C7.36131 0.38821 6.9731 0 6.49422 0C6.01534 0 5.62713 0.38821 5.62713 0.867092C5.62713 1.34597 6.01534 1.73418 6.49422 1.73418Z" fill="var(--fill-0, #303030)"/>
<path id="&#230;&#164;&#173;&#229;&#156;&#134;&#229;&#189;&#162;&#229;&#164;&#135;&#228;&#187;&#189;" d="M14.7712 9.90799C15.2501 9.90799 15.6383 9.51977 15.6383 9.04089C15.6383 8.56201 15.2501 8.1738 14.7712 8.1738C14.2923 8.1738 13.9041 8.56201 13.9041 9.04089C13.9041 9.51977 14.2923 9.90799 14.7712 9.90799Z" fill="var(--fill-0, #303030)"/>
</g>
</svg>
