<svg preserveAspectRatio="none" width="100%" height="100%" overflow="visible" style="display: block;" viewBox="0 0 19.8027 20.2784" fill="none" xmlns="http://www.w3.org/2000/svg">
<g id="&#229;&#142;&#168;&#231;&#148;&#181;/&#233;&#128;&#154;&#231;&#148;&#168;/&#229;&#138;&#159;&#232;&#131;&#189;/&#229;&#134;&#176;&#233;&#149;&#135;@selected">
<path id="Union" d="M8.12677 6.33586C8.53666 6.33602 8.86878 6.66817 8.86896 7.07805V11.414H13.2078C13.6178 11.414 13.9498 11.7462 13.95 12.1562V16.8896C13.9499 17.2996 13.6179 17.6318 13.2078 17.6318H3.39337C2.98343 17.6316 2.6512 17.2996 2.65119 16.8896V7.07805C2.65136 6.6682 2.98353 6.33607 3.39337 6.33586H8.12677ZM8.86896 16.1464H12.4656V12.8984H8.86896V16.1464ZM4.13849 16.1464H7.38361V12.8984H4.13849V16.1464ZM4.13556 11.414H7.38361V7.82024H4.13556V11.414ZM15.6541 0.0887937C15.8786 -0.135461 16.2509 0.100929 16.1434 0.399341L14.66 4.50188H16.7039C16.9685 4.50188 17.1017 4.82156 16.9149 5.00872L12.4891 9.4345C12.2647 9.65887 11.8916 9.42228 11.9988 9.12395L13.4822 5.02141H11.4383C11.1737 5.02141 11.0412 4.7017 11.2283 4.51457L15.6541 0.0887937Z" fill="var(--fill-0, black)" fill-opacity="0.8"/>
</g>
</svg>
