<svg preserveAspectRatio="none" width="100%" height="100%" overflow="visible" style="display: block;" viewBox="0 0 19.9355 19.9355" fill="none" xmlns="http://www.w3.org/2000/svg">
<g id="icon/&#230;&#131;&#133;&#230;&#153;&#175;&#230;&#168;&#161;&#229;&#188;&#143;/&#229;&#143;&#145;&#230;&#149;&#163;" clip-path="url(#clip0_1034_3788)">
<path id="&#229;&#144;&#136;&#229;&#185;&#182;&#229;&#189;&#162;&#231;&#138;&#182;" fill-rule="evenodd" clip-rule="evenodd" d="M9.96467 7.26338C11.1322 7.26338 12.1891 7.7366 12.9542 8.50169C13.7193 9.26678 14.1925 10.3237 14.1925 11.4912C14.1925 13.1169 13.2748 14.5282 11.9296 15.2359L11.9294 18.2309L7.99996 18.2309L7.9997 15.2359C6.65451 14.5282 5.73682 13.1169 5.73682 11.4912C5.73682 10.3237 6.21004 9.26678 6.97513 8.50169C7.74022 7.7366 8.79718 7.26338 9.96467 7.26338Z" stroke="var(--stroke-0, #303030)" stroke-width="1.7942"/>
<path id="&#229;&#144;&#136;&#229;&#185;&#182;&#229;&#189;&#162;&#231;&#138;&#182;_2" d="M14.5569 6.21459C13.3815 4.97343 11.7578 4.20575 9.96423 4.20575C8.17067 4.20575 6.5469 4.97343 5.37153 6.21459" stroke="var(--stroke-0, #303030)" stroke-width="1.7942" stroke-linecap="round"/>
<path id="&#229;&#144;&#136;&#229;&#185;&#182;&#229;&#189;&#162;&#231;&#138;&#182;_3" d="M17.0763 5.06143C16.9048 4.81317 16.7188 4.57447 16.5193 4.34639C16.3371 4.13801 16.1436 3.93849 15.9398 3.74863C14.4113 2.32497 12.2997 1.44441 9.96724 1.44441C7.63482 1.44441 5.5232 2.32497 3.9947 3.74863C3.79085 3.93849 3.59738 4.13801 3.41514 4.34639C3.21566 4.57447 3.02964 4.81317 2.8582 5.06143" stroke="var(--stroke-0, #303030)" stroke-width="1.7942" stroke-linecap="round"/>
</g>
<defs>
<clipPath id="clip0_1034_3788">
<rect width="19.9355" height="19.9355" fill="white"/>
</clipPath>
</defs>
</svg>
