<svg preserveAspectRatio="none" width="100%" height="100%" overflow="visible" style="display: block;" viewBox="0 0 14.7956 16.5714" fill="none" xmlns="http://www.w3.org/2000/svg">
<path id="fill" fill-rule="evenodd" clip-rule="evenodd" d="M8.10804 0.710203C8.10804 0.317969 7.79007 0 7.39783 0C7.0056 0 6.68763 0.317969 6.68763 0.710203V1.83643L6.00615 1.15495C5.7288 0.877599 5.27912 0.877599 5.00177 1.15495C4.72442 1.4323 4.72442 1.88198 5.00177 2.15933L6.68763 3.84519L6.68763 7.0556L3.90732 5.45038L3.29026 3.14746C3.18874 2.76859 2.79931 2.54375 2.42044 2.64527C2.04157 2.74679 1.81673 3.13622 1.91825 3.51508L2.16769 4.44601L1.19235 3.88289C0.852661 3.68677 0.418308 3.80316 0.222191 4.14284C0.0260738 4.48253 0.142458 4.91688 0.482143 5.113L1.45749 5.67611L0.526565 5.92555C0.147696 6.02707 -0.0771417 6.4165 0.0243758 6.79537C0.125893 7.17424 0.515324 7.39908 0.894193 7.29756L3.19712 6.68049L5.97741 8.28569L3.19712 9.89089L0.894193 9.27383C0.515324 9.17231 0.125893 9.39715 0.0243758 9.77601C-0.0771418 10.1549 0.147696 10.5443 0.526565 10.6458L1.45749 10.8953L0.482143 11.4584C0.142458 11.6545 0.0260738 12.0889 0.222191 12.4285C0.418308 12.7682 0.852661 12.8846 1.19235 12.6885L2.16769 12.1254L1.91825 13.0563C1.81673 13.4352 2.04157 13.8246 2.42044 13.9261C2.79931 14.0276 3.18874 13.8028 3.29026 13.4239L3.90732 11.121L6.68763 9.51579L6.68763 12.7262L5.00177 14.4121C4.72442 14.6894 4.72442 15.1391 5.00177 15.4164C5.27912 15.6938 5.7288 15.6938 6.00615 15.4164L6.68763 14.735V15.8612C6.68763 16.2534 7.0056 16.5714 7.39783 16.5714C7.79007 16.5714 8.10804 16.2534 8.10804 15.8612V14.735L8.78952 15.4164C9.06687 15.6938 9.51654 15.6938 9.7939 15.4164C10.0712 15.1391 10.0712 14.6894 9.7939 14.4121L8.10804 12.7262V9.51581L10.8883 11.121L11.5054 13.4239C11.6069 13.8028 11.9963 14.0276 12.3752 13.9261C12.7541 13.8246 12.9789 13.4352 12.8774 13.0563L12.6279 12.1254L13.6033 12.6885C13.943 12.8846 14.3773 12.7682 14.5734 12.4285C14.7696 12.0889 14.6532 11.6545 14.3135 11.4584L13.3381 10.8953L14.2691 10.6458C14.6479 10.5443 14.8728 10.1549 14.7713 9.77601C14.6697 9.39715 14.2803 9.17231 13.9014 9.27383L11.5985 9.89089L8.81822 8.28569L11.5985 6.68049L13.9014 7.29756C14.2803 7.39908 14.6697 7.17424 14.7713 6.79537C14.8728 6.4165 14.6479 6.02707 14.2691 5.92555L13.3381 5.67611L14.3135 5.113C14.6532 4.91688 14.7696 4.48253 14.5734 4.14284C14.3773 3.80316 13.943 3.68677 13.6033 3.88289L12.6279 4.44601L12.8774 3.51508C12.9789 3.13622 12.7541 2.74679 12.3752 2.64527C11.9963 2.54375 11.6069 2.76859 11.5054 3.14746L10.8883 5.45038L8.10804 7.05557V3.84519L9.7939 2.15933C10.0712 1.88198 10.0712 1.4323 9.7939 1.15495C9.51655 0.877599 9.06687 0.877599 8.78952 1.15495L8.10804 1.83643V0.710203Z" fill="var(--fill-0, white)"/>
</svg>
