<svg preserveAspectRatio="none" width="100%" height="100%" overflow="visible" style="display: block;" viewBox="0 0 29.4593 29.4593" fill="none" xmlns="http://www.w3.org/2000/svg">
<g id="&#230;&#180;&#190;&#229;&#175;&#185; 1">
<path id="Vector" d="M12.6738 10.2247C12.3958 9.93297 12.0477 9.71731 11.6627 9.59827C11.2777 9.47922 10.8687 9.46076 10.4745 9.54463C10.0804 9.6285 9.71425 9.81192 9.41109 10.0774C9.10792 10.3429 8.87779 10.6816 8.74263 11.0612L5.29499 20.5338C5.16942 20.8668 5.14065 21.2285 5.212 21.5772C5.28336 21.9259 5.45192 22.2472 5.69822 22.5042C5.94451 22.7611 6.25847 22.943 6.60383 23.0291C6.94918 23.1151 7.31182 23.1016 7.64983 22.9902L17.1272 19.8133C17.5082 19.6809 17.8501 19.4554 18.1216 19.1571C18.3931 18.8589 18.5857 18.4974 18.6818 18.1057C18.7779 17.714 18.7745 17.3045 18.6719 16.9144C18.5693 16.5243 18.3708 16.1661 18.0943 15.8724L12.6738 10.2247ZM15.0093 10.5196H15.135C15.3194 10.5175 15.4971 10.4503 15.6369 10.3301C15.7766 10.2098 15.8695 10.044 15.899 9.86203C16.3826 6.87859 16.0344 5.39412 16.0199 5.33126C16.0016 5.22881 15.9627 5.13114 15.9055 5.04418C15.8483 4.95722 15.7741 4.88278 15.6873 4.82536C15.6004 4.76794 15.5029 4.72874 15.4005 4.71015C15.2981 4.69155 15.193 4.69393 15.0915 4.71716C14.9896 4.74203 14.8937 4.78686 14.8092 4.84907C14.7248 4.91128 14.6535 4.98962 14.5995 5.07957C14.5455 5.16951 14.51 5.26927 14.4948 5.37306C14.4797 5.47686 14.4853 5.58263 14.5113 5.68424C14.5113 5.68424 14.7869 6.98013 14.371 9.60576C14.3523 9.70774 14.3539 9.81243 14.376 9.91376C14.398 10.0151 14.4399 10.1111 14.4992 10.1961C14.5586 10.2811 14.6343 10.3535 14.7218 10.409C14.8094 10.4646 14.9071 10.5022 15.0093 10.5196ZM17.8961 10.9742C17.9841 11.0259 18.0815 11.0595 18.1827 11.0731C18.2839 11.0868 18.3868 11.0801 18.4854 11.0536C18.5839 11.027 18.6762 10.9811 18.7569 10.9185C18.8375 10.8559 18.9049 10.7778 18.955 10.6889C19.3459 9.86389 19.571 8.97016 19.6175 8.05843C19.628 7.8522 19.5568 7.65013 19.4191 7.49619C19.2815 7.34225 19.0886 7.24888 18.8825 7.23641C18.7805 7.23121 18.6784 7.24626 18.5823 7.2807C18.4861 7.31514 18.3977 7.36829 18.3222 7.43707C18.2466 7.50585 18.1855 7.5889 18.1422 7.68144C18.099 7.77398 18.0745 7.87417 18.0701 7.97622C18.0357 8.64296 17.8817 9.29808 17.6156 9.91039C17.5132 10.089 17.4852 10.3007 17.5377 10.4998C17.5901 10.6989 17.7189 10.8693 17.8961 10.9742ZM19.1968 13.1888C18.9986 13.2529 18.8341 13.3931 18.7393 13.5786C18.6446 13.764 18.6274 13.9795 18.6915 14.1776C18.7556 14.3758 18.8958 14.5403 19.0813 14.6351C19.2667 14.7298 19.4822 14.7471 19.6803 14.6829C19.9254 14.6178 20.1816 14.6057 20.4317 14.6474C20.6818 14.6891 20.9202 14.7836 21.1309 14.9247C21.2112 14.9878 21.3033 15.0343 21.4017 15.0614C21.5002 15.0886 21.6031 15.0958 21.7043 15.0828C21.8056 15.0697 21.9033 15.0366 21.9916 14.9854C22.08 14.9342 22.1573 14.8659 22.2189 14.7845C22.3466 14.6222 22.4054 14.4162 22.3828 14.211C22.3602 14.0057 22.258 13.8175 22.098 13.6868C21.6854 13.3861 21.2089 13.1847 20.7057 13.0984C20.2025 13.012 19.6861 13.0429 19.1968 13.1888Z" fill="var(--fill-0, black)"/>
<path id="Vector_2" d="M21.4932 9.03414C21.4931 9.2272 21.5306 9.41837 21.6035 9.59673C21.6764 9.77509 21.7833 9.93716 21.918 10.0737C22.0527 10.2102 22.2126 10.3185 22.3886 10.3924C22.5646 10.4663 22.7533 10.5043 22.9438 10.5043C23.1343 10.5043 23.3229 10.4663 23.499 10.3924C23.675 10.3185 23.8349 10.2102 23.9696 10.0737C24.1043 9.93716 24.2111 9.77509 24.284 9.59673C24.3569 9.41837 24.3944 9.2272 24.3944 9.03414C24.3944 8.84109 24.3569 8.64992 24.284 8.47156C24.2111 8.2932 24.1043 8.13113 23.9696 7.99461C23.8349 7.85809 23.675 7.7498 23.499 7.67592C23.3229 7.60203 23.1343 7.564 22.9438 7.564C22.7533 7.564 22.5646 7.60203 22.3886 7.67592C22.2126 7.7498 22.0527 7.85809 21.918 7.99461C21.7833 8.13113 21.6764 8.2932 21.6035 8.47156C21.5306 8.64992 21.4931 8.84109 21.4932 9.03414Z" fill="var(--fill-0, black)"/>
</g>
</svg>
