<svg preserveAspectRatio="none" width="100%" height="100%" overflow="visible" style="display: block;" viewBox="0 0 19.9355 19.9355" fill="none" xmlns="http://www.w3.org/2000/svg">
<g id="Frame" clip-path="url(#clip0_1034_3837)">
<path id="Vector" d="M19.9348 5.47403e-06H-0.00074574V19.9355H19.9348V5.47403e-06Z" fill="var(--fill-0, #809DE4)"/>
<path id="Vector_2" fill-rule="evenodd" clip-rule="evenodd" d="M2.32994 3.54633C2.32994 7.22158 2.32994 11.9401 2.32994 15.6711C5.24985 15.2361 7.01339 15.4376 9.00883 16.2756C9.32805 16.4097 10.0017 16.7466 9.96557 16.5339C9.96557 16.3945 9.96557 15.8762 9.96557 15.601C9.96557 15.601 9.96557 5.23303 9.96557 4.71384C9.96557 4.19465 9.75093 4.09294 9.44359 4.00986C6.84097 3.30634 4.93253 3.15183 2.32994 3.54633Z" stroke="var(--stroke-0, white)" stroke-width="1.7942" stroke-linejoin="round"/>
<path id="Vector_3" fill-rule="evenodd" clip-rule="evenodd" d="M17.6023 3.54634C17.6023 7.22159 17.6023 11.9401 17.6023 15.6711C14.6824 15.2362 12.9188 15.4377 10.9234 16.2757C10.6041 16.4096 9.93049 16.7466 9.96662 16.534C9.96662 16.3944 9.96662 15.8762 9.96662 15.601C9.96662 15.601 9.96662 5.20415 9.96662 4.71384C9.96662 4.22352 10.1813 4.09294 10.4886 4.00986C13.0912 3.30634 14.9997 3.15183 17.6023 3.54634Z" stroke="var(--stroke-0, white)" stroke-width="1.7942" stroke-linejoin="round"/>
</g>
<defs>
<clipPath id="clip0_1034_3837">
<rect width="19.9355" height="19.9355" fill="white"/>
</clipPath>
</defs>
</svg>
