<svg preserveAspectRatio="none" width="100%" height="100%" overflow="visible" style="display: block;" viewBox="0 0 29.4589 29.4589" fill="none" xmlns="http://www.w3.org/2000/svg">
<g id="directseeding 1">
<path id="Vector" d="M16.0859 12.7673C16.4803 11.423 16.3135 9.94868 15.5855 8.71452C15.6016 8.73677 8.62808 15.7774 8.57761 15.7329C9.78946 16.4498 11.2614 16.6516 12.5854 16.2816C12.5763 16.2474 16.0579 12.7622 16.0859 12.7673ZM14.8414 7.59169C13.9023 6.66423 12.5575 6.03545 11.1361 6.03545C8.26258 6.03545 5.93305 8.37442 5.93305 11.2597C5.93305 12.6676 6.57253 14.0304 7.47451 14.9699C7.4759 14.9691 14.7979 7.65176 14.8414 7.59169ZM22.2005 21.452C22.2005 21.452 22.3701 19.9801 21.9462 19.5554C21.9179 19.5272 17.0564 13.5826 17.0564 13.5826L13.4385 17.206L19.374 22.1315C19.7698 22.5843 21.296 22.3579 21.296 22.3579L22.5114 23.4618L23.3594 22.6126L22.2005 21.452Z" fill="var(--fill-0, black)"/>
</g>
</svg>
