<svg preserveAspectRatio="none" width="100%" height="100%" overflow="visible" style="display: block;" viewBox="0 0 14.9075 16.2084" fill="none" xmlns="http://www.w3.org/2000/svg">
<path id="fill" fill-rule="evenodd" clip-rule="evenodd" d="M8.45998 1.80144C8.24582 1.61458 7.94661 1.61458 7.73245 1.80144C6.91923 2.51104 5.70196 3.67529 4.69429 5.05593C3.67388 6.45402 2.94621 7.96861 2.94621 9.39709C2.94621 9.95308 3.03432 10.4885 3.19733 10.9901L10.4376 3.74984C9.72004 2.94607 9.0007 2.27325 8.45998 1.80144ZM11.6141 2.57341C10.8555 1.73122 10.1083 1.03488 9.55222 0.549684C8.71227 -0.183227 7.48017 -0.183228 6.64021 0.549684C5.77982 1.30043 4.4617 2.55664 3.35239 4.07653C2.25582 5.57898 1.28492 7.44497 1.28492 9.39709C1.28492 10.4233 1.51185 11.3965 1.91827 12.2692L0.243291 13.9442C-0.0810969 14.2686 -0.0810969 14.7945 0.243291 15.1189C0.567678 15.4433 1.09361 15.4433 1.418 15.1189L14.3398 2.19706C14.6642 1.87267 14.6642 1.34674 14.3398 1.02235C14.0154 0.697962 13.4895 0.697963 13.1651 1.02235L11.6141 2.57341ZM3.959 14.8084L5.14748 13.6199C5.98277 14.2043 6.99945 14.5471 8.09622 14.5471C10.9405 14.5471 13.2462 12.2414 13.2462 9.39709C13.2462 8.41863 12.9048 7.39976 12.3618 6.4056L13.579 5.18842C14.3381 6.45774 14.9075 7.90216 14.9075 9.39709C14.9075 13.1589 11.858 16.2084 8.09622 16.2084C6.54012 16.2084 5.1059 15.6866 3.959 14.8084Z" fill="var(--fill-0, black)"/>
</svg>
