<svg preserveAspectRatio="none" width="100%" height="100%" overflow="visible" style="display: block;" viewBox="0 0 16.6667 17.9124" fill="none" xmlns="http://www.w3.org/2000/svg">
<path id="fill" fill-rule="evenodd" clip-rule="evenodd" d="M9.79169 1.66667C10.0218 1.66667 10.2084 1.85321 10.2084 2.08333V2.91667H6.45835V2.08333C6.45835 1.85321 6.6449 1.66667 6.87502 1.66667H9.79169ZM4.79169 1.66667C4.79169 0.746192 5.53788 0 6.45835 0H10.2084C11.1288 0 11.875 0.746192 11.875 1.66667V2.91675H15.8333C16.2936 2.91675 16.6667 3.28984 16.6667 3.75008C16.6667 4.21032 16.2936 4.58341 15.8333 4.58341H0.833332C0.373095 4.58341 0 4.21032 0 3.75008C0 3.28984 0.373096 2.91675 0.833333 2.91675H4.79169V1.66667ZM2.38152 5.37659C1.90099 5.37659 1.52004 5.7819 1.54979 6.26151L2.03 14.0037L2.03199 14.0359C2.06443 14.559 2.09176 14.9998 2.14305 15.3603C2.19681 15.7382 2.28478 16.0951 2.47488 16.4313C2.76589 16.946 3.20646 17.3601 3.73818 17.6187C4.08551 17.7876 4.4472 17.8533 4.82771 17.8836C5.19067 17.9125 5.63232 17.9125 6.15636 17.9124H6.15646H6.18868H10.4778H10.51H10.5101C11.0342 17.9125 11.4758 17.9125 11.8388 17.8836C12.2193 17.8533 12.581 17.7876 12.9283 17.6187C13.46 17.3601 13.9006 16.946 14.1916 16.4313C14.3817 16.0951 14.4697 15.7382 14.5234 15.3603C14.5747 14.9998 14.602 14.559 14.6345 14.0359L14.6365 14.0037L15.1167 6.26151C15.1464 5.7819 14.7655 5.37659 14.2849 5.37659C13.8447 5.37659 13.4805 5.71897 13.4532 6.15833L12.973 13.9005C12.938 14.4643 12.9142 14.8385 12.8734 15.1255C12.834 15.4025 12.7868 15.5296 12.7408 15.611C12.6161 15.8316 12.4272 16.0091 12.1994 16.1199C12.1153 16.1608 11.9855 16.2 11.7066 16.2222C11.4176 16.2452 11.0426 16.2458 10.4778 16.2458H6.18868C5.62383 16.2458 5.24888 16.2452 4.95987 16.2222C4.68099 16.2 4.55121 16.1608 4.46711 16.1199C4.23923 16.0091 4.05041 15.8316 3.92569 15.611C3.87966 15.5296 3.8325 15.4025 3.7931 15.1255C3.75226 14.8385 3.72844 14.4643 3.69347 13.9005L3.21326 6.15833C3.18601 5.71897 2.82173 5.37659 2.38152 5.37659ZM7.33319 8.18197C7.33319 7.72173 6.96009 7.34863 6.49986 7.34863C6.03962 7.34863 5.66652 7.72173 5.66652 8.18197L5.66652 13.182C5.66652 13.6422 6.03962 14.0153 6.49986 14.0153C6.96009 14.0153 7.33319 13.6422 7.33319 13.182L7.33319 8.18197ZM10 7.34863C10.4602 7.34863 10.8333 7.72173 10.8333 8.18197V13.182C10.8333 13.6422 10.4602 14.0153 10 14.0153C9.53977 14.0153 9.16668 13.6422 9.16668 13.182V8.18197C9.16668 7.72173 9.53977 7.34863 10 7.34863Z" fill="var(--fill-0, white)" fill-opacity="0.8"/>
</svg>
