<svg preserveAspectRatio="none" width="100%" height="100%" overflow="visible" style="display: block;" viewBox="0 0 16.156 18.3768" fill="none" xmlns="http://www.w3.org/2000/svg">
<path id="fill" fill-rule="evenodd" clip-rule="evenodd" d="M8.94742 1.77492C9.16969 1.71536 9.39817 1.84727 9.45773 2.06955L9.67339 2.87441L6.05117 3.84498L5.83551 3.04012C5.77595 2.81784 5.90786 2.58937 6.13013 2.52981L8.94742 1.77492ZM4.44129 4.27635L4.11779 3.06902C3.87955 2.17991 4.40719 1.26601 5.2963 1.02778L8.91852 0.0572039C9.80763 -0.181032 10.7215 0.346605 10.9598 1.23572L11.2833 2.44304L15.1067 1.41855C15.5513 1.29943 16.0082 1.56325 16.1274 2.0078C16.2465 2.45236 15.9827 2.9093 15.5381 3.02842L11.7146 4.05292L11.7147 4.053L4.87268 5.8863L4.87266 5.88622L2.5647 6.50464C2.57265 6.54306 2.57797 6.58248 2.58047 6.62272L3.06068 14.3649C3.09565 14.9287 3.11947 15.3029 3.16031 15.5899C3.19971 15.8669 3.24688 15.994 3.2929 16.0754C3.41762 16.296 3.60644 16.4735 3.83432 16.5843C3.91842 16.6252 4.0482 16.6644 4.32709 16.6866C4.61609 16.7096 4.99105 16.7102 5.55589 16.7102H9.84501C10.4098 16.7102 10.7848 16.7096 11.0738 16.6866C11.3527 16.6644 11.4825 16.6252 11.5666 16.5843C11.7945 16.4735 11.9833 16.296 12.108 16.0754C12.154 15.994 12.2012 15.8669 12.2406 15.5899C12.2814 15.3029 12.3052 14.9287 12.3402 14.3649L12.8204 6.62272C12.8477 6.18336 13.212 5.84098 13.6522 5.84098C14.1327 5.84098 14.5136 6.24629 14.4839 6.7259L14.0037 14.4681L14.0017 14.5003C13.9693 15.0234 13.9419 15.4642 13.8906 15.8247C13.8369 16.2026 13.7489 16.5595 13.5588 16.8957C13.2678 17.4104 12.8272 17.8245 12.2955 18.0831C11.9482 18.252 11.5865 18.3177 11.206 18.348C10.843 18.3769 10.4014 18.3768 9.87732 18.3768H9.87722H9.84501H5.55589H5.52367H5.52358C4.99953 18.3768 4.55788 18.3769 4.19492 18.348C3.81442 18.3177 3.45272 18.252 3.1054 18.0831C2.57367 17.8245 2.1331 17.4104 1.84209 16.8957C1.652 16.5595 1.56402 16.2026 1.51026 15.8247C1.45897 15.4642 1.43164 15.0234 1.39921 14.5003L1.39721 14.4681L0.929882 6.93363C0.525624 6.98118 0.137065 6.72624 0.028602 6.32145C-0.0905162 5.8769 0.173303 5.41995 0.617858 5.30083L4.44129 4.27635ZM6.7004 8.64636C6.7004 8.18612 6.3273 7.81302 5.86707 7.81302C5.40683 7.81302 5.03373 8.18612 5.03373 8.64636L5.03373 13.6464C5.03373 14.1066 5.40683 14.4797 5.86707 14.4797C6.3273 14.4797 6.7004 14.1066 6.7004 13.6464L6.7004 8.64636ZM9.36722 7.81302C9.82746 7.81302 10.2006 8.18612 10.2006 8.64636V13.6464C10.2006 14.1066 9.82746 14.4797 9.36722 14.4797C8.90698 14.4797 8.53389 14.1066 8.53389 13.6464V8.64636C8.53389 8.18612 8.90698 7.81302 9.36722 7.81302Z" fill="var(--fill-0, black)" fill-opacity="0.8"/>
</svg>
