<svg preserveAspectRatio="none" width="100%" height="100%" overflow="visible" style="display: block;" viewBox="0 0 16.8231 16.3333" fill="none" xmlns="http://www.w3.org/2000/svg">
<path id="fill" fill-rule="evenodd" clip-rule="evenodd" d="M12.6565 1.66667C11.2757 1.66667 10.1565 2.78595 10.1565 4.16667C10.1565 4.25289 10.1608 4.33784 10.1692 4.42134C10.2153 4.87926 9.88154 5.28788 9.42362 5.33402C8.9657 5.38017 8.55708 5.04636 8.51093 4.58844C8.49693 4.44951 8.48979 4.30879 8.48979 4.16667C8.48979 1.86548 10.3553 0 12.6565 0C14.9576 0 16.8231 1.86548 16.8231 4.16667C16.8231 6.46785 14.9576 8.33333 12.6565 8.33333C12.6442 8.33333 12.632 8.33307 12.6199 8.33255C12.6078 8.33307 12.5956 8.33333 12.5833 8.33333H0.833333C0.373096 8.33333 0 7.96024 0 7.5C0 7.03976 0.373096 6.66667 0.833333 6.66667H12.5833C12.5956 6.66667 12.6078 6.66693 12.6199 6.66745C12.632 6.66693 12.6442 6.66667 12.6565 6.66667C14.0372 6.66667 15.1565 5.54738 15.1565 4.16667C15.1565 2.78595 14.0372 1.66667 12.6565 1.66667ZM0.912476 4.5843C0.912476 4.12406 1.28557 3.75097 1.74581 3.75097H5.37793C5.83817 3.75097 6.21126 4.12406 6.21126 4.5843C6.21126 5.04454 5.83817 5.41763 5.37793 5.41763H1.74581C1.28557 5.41763 0.912476 5.04454 0.912476 4.5843ZM10.1436 9.66512C10.1665 9.66512 10.1891 9.66604 10.2115 9.66784C12.0108 9.71558 13.4547 11.1892 13.4547 13C13.4547 14.8409 11.9623 16.3333 10.1214 16.3333C8.67582 16.3333 7.44721 15.4136 6.98472 14.1301C6.97839 14.1125 6.9722 14.0949 6.96616 14.0772C6.81749 13.6416 7.05006 13.168 7.48563 13.0193C7.92119 12.8706 8.39481 13.1032 8.54348 13.5388L8.5527 13.5651C8.78458 14.2086 9.40055 14.6666 10.1214 14.6666C11.0418 14.6666 11.788 13.9205 11.788 13C11.788 12.0795 11.0418 11.3333 10.1214 11.3333C10.117 11.3333 10.1128 11.3328 10.1088 11.3318H2.48596C2.02572 11.3318 1.65263 10.9587 1.65263 10.4985C1.65263 10.0382 2.02572 9.66512 2.48596 9.66512H10.1436Z" fill="var(--fill-0, black)"/>
</svg>
