<svg preserveAspectRatio="none" width="100%" height="100%" overflow="visible" style="display: block;" viewBox="0 0 7.82919 14.4083" fill="none" xmlns="http://www.w3.org/2000/svg">
<path id="&#228;&#186;&#140;&#231;&#186;&#167;&#231;&#174;&#173;&#229;&#164;&#180;" fill-rule="evenodd" clip-rule="evenodd" d="M5.89994 6.83039L0.998685 1.92914L0.192704 1.12316C-0.0642348 0.866224 -0.0642348 0.449643 0.192704 0.192704C0.449644 -0.0642348 0.866224 -0.0642348 1.12316 0.192704L1.92914 0.998684L6.8304 5.89994L7.63638 6.70592C7.77297 6.84251 7.83695 7.02423 7.82831 7.20309C7.83755 7.38263 7.77361 7.56522 7.63648 7.70235L6.8305 8.50833L1.92925 13.4096L1.12327 14.2156C0.866327 14.4725 0.449746 14.4725 0.192807 14.2156C-0.064132 13.9586 -0.064132 13.542 0.192807 13.2851L0.998788 12.4791L5.90004 7.57787L6.27373 7.20418L5.89994 6.83039Z" fill="var(--fill-0, black)" fill-opacity="0.3"/>
</svg>
