<svg preserveAspectRatio="none" width="100%" height="100%" overflow="visible" style="display: block;" viewBox="0 0 16.1984 17.7516" fill="none" xmlns="http://www.w3.org/2000/svg">
<path id="fill" d="M0.485889 0.548469C0.643298 0.116262 1.12199 -0.106908 1.55425 0.0504217L8.22905 2.48011L14.6451 0.145148C15.0774 -0.0121542 15.5551 0.210904 15.7125 0.643195C15.8697 1.07548 15.6467 1.55324 15.2144 1.71058L10.6646 3.36585L15.65 5.18128C16.0823 5.33863 16.3053 5.81733 16.148 6.24964C15.9905 6.68165 15.5128 6.90391 15.0806 6.74671L14.8472 6.66175L14.4019 13.8434C14.3686 14.38 14.3419 14.8322 14.2896 15.1998C14.2359 15.5772 14.1473 15.9343 13.9576 16.2701C13.6666 16.7846 13.2254 17.1991 12.6939 17.4576C12.3469 17.6263 11.9852 17.693 11.605 17.7233C11.2347 17.7527 10.7817 17.7516 10.2437 17.7516H5.95464C5.41659 17.7516 4.96362 17.7527 4.59331 17.7233C4.21304 17.693 3.85157 17.6264 3.50444 17.4576C2.97281 17.1991 2.53178 16.7847 2.24077 16.2701C2.05097 15.9343 1.96249 15.5773 1.90874 15.1998C1.85646 14.8322 1.82875 14.3801 1.79546 13.8434L1.35503 6.75452L1.1187 6.84144C0.686389 6.99879 0.207691 6.7757 0.0503425 6.34339C-0.106837 5.91124 0.116358 5.43346 0.548389 5.27601L5.79253 3.36683L0.983936 1.61683C0.551624 1.45948 0.32854 0.980781 0.485889 0.548469ZM2.98882 6.1598L3.45952 13.7399C3.49445 14.303 3.51835 14.6776 3.55913 14.9645C3.59848 15.2409 3.64599 15.3684 3.69194 15.4498C3.81665 15.6703 4.00516 15.8488 4.23296 15.9596C4.31704 16.0005 4.44762 16.039 4.72612 16.0612C5.01501 16.0841 5.39029 16.0846 5.95464 16.0846H10.2437C10.8081 16.0846 11.1833 16.0841 11.4722 16.0612C11.7505 16.039 11.8813 16.0004 11.9654 15.9596C12.193 15.8488 12.3817 15.6702 12.5064 15.4498C12.5523 15.3684 12.5999 15.2406 12.6392 14.9645C12.68 14.6776 12.7039 14.303 12.7388 13.7399L13.2134 6.06702L8.22808 4.25257L2.98882 6.1598ZM6.34917 7.18812C6.80939 7.18812 7.18215 7.56092 7.18218 8.02112V13.0211C7.18218 13.4814 6.80941 13.8541 6.34917 13.8541C5.88893 13.8541 5.51616 13.4814 5.51616 13.0211V8.02112C5.5162 7.56092 5.88895 7.18812 6.34917 7.18812ZM9.84917 7.18812C10.3094 7.18812 10.6821 7.56092 10.6822 8.02112V13.0211C10.6822 13.4814 10.3094 13.8541 9.84917 13.8541C9.389 13.8541 9.01616 13.4813 9.01616 13.0211V8.02112C9.0162 7.56096 9.38902 7.1882 9.84917 7.18812Z" fill="var(--fill-0, black)" fill-opacity="0.8"/>
</svg>
